<?xml version="1.0" encoding="UTF-8"?>
<svg version="1.1" xmlns="http://www.w3.org/2000/svg" width="271" height="272">
<path d="M0 0 C0.58362305 0.32758301 1.16724609 0.65516602 1.76855469 0.99267578 C33.18845373 18.85662405 55.29907297 48.41550279 65 83 C74.26974988 117.825178 69.32486896 154.9044069 52.125 186.4375 C33.28058036 218.04749423 3.95885753 241.77872926 -32 251 C-37.29812575 252.25566654 -42.61554719 253.20097821 -48 254 C-48.86496094 254.13148438 -49.72992188 254.26296875 -50.62109375 254.3984375 C-85.66917955 258.77206035 -120.63469155 248.46890496 -148.9453125 227.85546875 C-174.04649025 208.1331148 -190.52263669 182.70565439 -199 152 C-199.19207031 151.3188916 -199.38414062 150.6377832 -199.58203125 149.93603516 C-204.71348695 130.71755842 -204.38713665 105.10354581 -199 86 C-198.66935547 84.80238037 -198.66935547 84.80238037 -198.33203125 83.58056641 C-191.2293212 58.6412227 -178.5747808 38.08597078 -160 20 C-159.57332031 19.51660156 -159.14664063 19.03320312 -158.70703125 18.53515625 C-119.99274007 -23.76194851 -47.55266098 -26.9226335 0 0 Z " fill="#000000" transform="translate(202,17)"/>
<path d="M0 0 C17.49 0 34.98 0 53 0 C55.70406014 6.08413532 57.86825801 11.41238832 59.4375 17.75 C59.64431396 18.55928955 59.85112793 19.3685791 60.06420898 20.20239258 C62.07172875 28.12258476 63.94701896 36.07546968 65.82421875 44.02734375 C68.47667555 55.2581403 71.36629148 66.39385325 74.5 77.5 C76.53920358 84.7345887 78.57684718 91.96707163 80.4375 99.25 C80.74558594 100.45140625 81.05367187 101.6528125 81.37109375 102.890625 C81.94002549 105.70348007 82.1342404 108.14336438 82 111 C80.35 110.67 78.7 110.34 77 110 C74.64191492 100.96600181 72.28543364 91.93158705 69.93080807 82.89668655 C68.83652589 78.69802164 67.74176205 74.49948375 66.64575195 70.30126953 C63.74911694 59.20463493 60.86561418 48.10468715 58 37 C57.81358192 36.27867889 57.62716385 35.55735779 57.43509674 34.81417847 C56.2395393 30.1859524 55.05593962 25.55484734 53.87890625 20.921875 C53.58330307 19.77567688 53.28769989 18.62947876 52.98313904 17.44854736 C52.58651817 15.87445099 52.58651817 15.87445099 52.18188477 14.26855469 C51.95187271 13.36514343 51.72186066 12.46173218 51.48487854 11.53094482 C50.99193683 8.95791226 50.91108015 6.61304236 51 4 C48.36 4 45.72 4 43 4 C43.55730246 6.45960303 44.1208938 8.91753556 44.6875 11.375 C44.83638672 12.035 44.98527344 12.695 45.13867188 13.375 C46.15685627 17.767168 47.30432685 22.10855741 48.54023743 26.4446106 C51.16971285 35.69421849 53.52565934 45.00445305 55.8125 54.34375 C55.98130487 55.03287098 56.15010975 55.72199196 56.32402992 56.43199539 C57.73110203 62.18075154 59.13118892 67.93120524 60.53112793 73.68170166 C61.74677976 78.67398784 62.9651131 83.66560846 64.1875 88.65625 C64.35531731 89.34182039 64.52313461 90.02739079 64.69603729 90.73373604 C66.80297618 99.32631358 69.00485716 107.88107436 71.43023682 116.38963318 C73.09292123 122.23633812 74.47350024 128.12120749 75.75 134.0625 C76.15816246 135.9499345 76.56943776 137.83669955 76.984375 139.72265625 C77.15678711 140.52453369 77.32919922 141.32641113 77.50683594 142.15258789 C77.83544797 144.00238413 77.83544797 144.00238413 79 145 C82.36460233 133.62029115 85.49745437 122.23082829 88.17456055 110.66918945 C89.65395427 104.325128 91.34012809 98.06451613 93.12744141 91.80126953 C94.7279647 86.13145005 96.10856348 80.42647427 97.4375 74.6875 C99.29608978 66.67674278 101.4464964 58.79155947 103.76269531 50.90209961 C105.84916731 43.71992456 107.62191963 36.48551142 109.26367188 29.18945312 C110.52688518 23.65684295 112.13244042 18.36048801 114 13 C108.39 13 102.78 13 97 13 C97 11.68 97 10.36 97 9 C110.2 9 123.4 9 137 9 C137 10.32 137 11.64 137 13 C130.73 13 124.46 13 118 13 C117.67 15.97 117.34 18.94 117 22 C116.54104686 24.19213161 116.03357865 26.37481354 115.47216797 28.54296875 C115.15976166 29.76176224 114.84735535 30.98055573 114.52548218 32.23628235 C114.18119704 33.55339318 113.8367608 34.87046452 113.4921875 36.1875 C113.13024043 37.58919921 112.76881364 38.99103285 112.40786743 40.39299011 C111.43844901 44.1516842 110.46126311 47.90831867 109.48257446 51.664608 C108.66909281 54.79146513 107.86063351 57.919611 107.05228043 61.0477972 C102.92563905 77.01621988 98.75373255 92.97256307 94.5390625 108.91796875 C94.18984637 110.24008087 93.84063368 111.56219389 93.49142456 112.88430786 C91.86752834 119.02971241 90.237464 125.17340337 88.59716797 131.31445312 C88.01263299 133.51560845 87.4281569 135.71677942 86.84375 137.91796875 C86.58308746 138.88582809 86.32242493 139.85368744 86.05386353 140.85087585 C84.37660846 147.18760964 83.08197994 153.53536552 82 160 C74.22226287 160.12655173 66.44479016 160.21424713 58.66625977 160.2746582 C56.01902342 160.29983594 53.37185681 160.33398022 50.72485352 160.37719727 C46.92446716 160.43770164 43.12499803 160.46617793 39.32421875 160.48828125 C38.13664474 160.51408768 36.94907074 160.5398941 35.72550964 160.56648254 C34.0741375 160.56704903 34.0741375 160.56704903 32.3894043 160.56762695 C31.41899704 160.57873001 30.44858978 160.58983307 29.44877625 160.60127258 C27 160 27 160 25.20916748 157.59313965 C24.16163336 155.34663344 23.3575649 153.31382028 22.75390625 150.91796875 C22.55603516 150.14904297 22.35816406 149.38011719 22.15429688 148.58789062 C21.95900391 147.79576172 21.76371094 147.00363281 21.5625 146.1875 C21.37107422 145.43791016 21.17964844 144.68832031 20.98242188 143.91601562 C20.02180851 140.13884658 19.08752925 136.35530299 18.15527344 132.57104492 C15.52996702 121.97045776 12.7389733 111.41798203 9.9107666 100.86987305 C8.84404722 96.88902282 7.78190086 92.90695709 6.71948242 88.92495728 C4.29661872 79.84178747 4.29661872 79.84178747 1.86035156 70.76220703 C0.98519889 67.50945427 0.11651277 64.25506211 -0.75 61 C-0.98960449 60.11948975 -1.22920898 59.23897949 -1.47607422 58.33178711 C-2.49936463 54.46308662 -3.29343103 51.04282755 -3 47 C-1.02 46.505 -1.02 46.505 1 46 C4.07569696 55.26327556 6.45440669 64.65057757 8.78320312 74.12329102 C10.1333481 79.59522352 11.53538967 85.03032155 13.125 90.4375 C14.58446527 95.40691895 15.83614205 100.39298944 17 105.4375 C19.16629539 114.821273 21.50063408 124.15368154 24.328125 133.36328125 C26.65606661 140.96528357 28.61890651 147.99703678 29 156 C31.97 156 34.94 156 38 156 C37.62415771 154.52019653 37.62415771 154.52019653 37.24072266 153.01049805 C31.13242856 128.92417408 25.32303854 104.78203604 19.75262451 80.56590271 C17.74605403 71.86220301 15.67317183 63.17448083 13.5947113 54.48771667 C12.55994913 50.15923814 11.53026834 45.82954991 10.5 41.5 C10.08986544 39.77733859 9.6797118 38.05468172 9.26953125 36.33203125 C6.13476562 23.16601562 6.13476562 23.16601562 3 10 C-1.3875418 22.99430537 -5.0928836 36.05003262 -8.19482422 49.41113281 C-9.3399386 54.31722382 -10.57228456 59.16640916 -12 64 C-13.69407924 69.75167225 -15.12618852 75.54059274 -16.5 81.375 C-16.71342041 82.28121094 -16.92684082 83.18742187 -17.14672852 84.12109375 C-17.56827644 85.91367995 -17.98958652 87.7063221 -18.41064453 89.49902344 C-20.91490715 100.12606 -23.72899936 110.62374237 -26.77563477 121.10620117 C-29.14790896 129.34581424 -31.10922859 137.63697263 -33 146 C-24.585 146.495 -24.585 146.495 -16 147 C-15.67 148.32 -15.34 149.64 -15 151 C-16 152 -16 152 -19.78540039 152.11352539 C-21.47282729 152.11336622 -23.16025905 152.10766917 -24.84765625 152.09765625 C-26.17729652 152.09553383 -26.17729652 152.09553383 -27.53379822 152.09336853 C-30.37673254 152.08775215 -33.21958931 152.07519691 -36.0625 152.0625 C-37.98502491 152.05748711 -39.90755104 152.05292384 -41.83007812 152.04882812 C-46.55341549 152.03777741 -51.27669458 152.02050183 -56 152 C-56.5625 150.0625 -56.5625 150.0625 -57 148 C-56 147 -56 147 -54.23413086 146.88647461 C-53.48526611 146.89171143 -52.73640137 146.89694824 -51.96484375 146.90234375 C-51.15595703 146.90556641 -50.34707031 146.90878906 -49.51367188 146.91210938 C-48.66353516 146.92048828 -47.81339844 146.92886719 -46.9375 146.9375 C-46.08349609 146.94201172 -45.22949219 146.94652344 -44.34960938 146.95117188 C-42.23304337 146.96299627 -40.11651315 146.98093231 -38 147 C-37.89171875 145.72640625 -37.7834375 144.4528125 -37.671875 143.140625 C-37.07910051 137.83052621 -35.73293382 132.87139146 -34.25 127.75 C-32.16346978 120.34519446 -30.22661758 112.93433936 -28.5 105.4375 C-26.88722755 98.47499585 -25.07626776 91.60706419 -23.0625 84.75 C-20.47218637 75.92578147 -18.28237163 67.03871462 -16.17993164 58.08691406 C-14.57972722 51.3092082 -12.82597428 44.60349413 -10.89868164 37.91235352 C-8.70197973 30.17683093 -6.91016195 22.3433586 -5.14257812 14.5 C-4.78969727 12.97632812 -4.78969727 12.97632812 -4.4296875 11.421875 C-4.22585449 10.52049805 -4.02202148 9.61912109 -3.81201172 8.69042969 C-3 6 -3 6 0 0 Z " fill="#F6F6F6" transform="translate(94,56)"/>
</svg>
